HIERARCHY
ROOT hip
{
	OFFSET 0.000000 0.000000 0.000000 
	CHANNELS 6 Xposition Yposition Zposition Xrotation Zrotation Yrotation
	JOINT abdomen
	{
		OFFSET 0.000000 3.402643 0.000000 
		CHANNELS 3 Xrotation Zrotation Yrotation
		JOINT chest
		{
			OFFSET 0.000000 8.438565 -0.680529 
			CHANNELS 3 Xrotation Zrotation Yrotation
			JOINT neck
			{
				OFFSET 0.000000 10.207942 -0.272212 
				CHANNELS 3 Xrotation Zrotation Yrotation
				JOINT head
				{
					OFFSET 0.000000 3.130431 0.000000 
					CHANNELS 3 Xrotation Zrotation Yrotation
					End Site
					{
						OFFSET 0.000000 3.130435 0.000000 
					}
				}
			}
			JOINT lCollar
			{
				OFFSET 3.470700 6.669187 -0.816635 
				CHANNELS 3 Yrotation Zrotation Xrotation
				JOINT lShldr
				{
					OFFSET 3.198488 0.000000 0.000000 
					CHANNELS 3 Zrotation Yrotation Xrotation
					JOINT lForeArm
					{
						OFFSET 10.139888 0.000000 0.000000 
						CHANNELS 3 Yrotation Zrotation Xrotation
						JOINT lHand
						{
							OFFSET 8.370511 0.000000 0.000000 
							CHANNELS 3 Zrotation Yrotation Xrotation
							End Site
							{
								OFFSET 4.083176 0.000000 0.000000 
							}
						}
					}
				}
			}
			JOINT rCollar
			{
				OFFSET -3.470700 6.669187 -0.816635 
				CHANNELS 3 Yrotation Zrotation Xrotation
				JOINT rShldr
				{
					OFFSET -3.198488 0.000000 0.000000 
					CHANNELS 3 Zrotation Yrotation Xrotation
					JOINT rForeArm
					{
						OFFSET -10.139888 0.000000 0.000000 
						CHANNELS 3 Yrotation Zrotation Xrotation
						JOINT rHand
						{
							OFFSET -8.370511 0.000000 0.000000 
							CHANNELS 3 Zrotation Yrotation Xrotation
							End Site
							{
								OFFSET -4.083176 0.000000 0.000000 
							}
						}
					}
				}
			}
		}
	}
	JOINT lThigh
	{
		OFFSET 5.308129 -1.633274 1.361059 
		CHANNELS 3 Xrotation Zrotation Yrotation
		JOINT lShin
		{
			OFFSET -2.041588 -20.007561 0.000000 
			CHANNELS 3 Xrotation Zrotation Yrotation
			JOINT lFoot
			{
				OFFSET 0.000000 -19.190928 -1.224953 
				CHANNELS 3 Xrotation Yrotation Zrotation
				End Site
				{
					OFFSET 0.000000 -2.449906 4.627600 
				}
			}
		}
	}
	JOINT rThigh
	{
		OFFSET -5.308129 -1.633274 1.361059 
		CHANNELS 3 Xrotation Zrotation Yrotation
		JOINT rShin
		{
			OFFSET 2.041588 -20.007561 0.000000 
			CHANNELS 3 Xrotation Zrotation Yrotation
			JOINT rFoot
			{
				OFFSET 0.000000 -19.190928 -1.224953 
				CHANNELS 3 Xrotation Yrotation Zrotation
				End Site
				{
					OFFSET 0.000000 -2.449906 4.627600 
				}
			}
		}
	}
}
MOTION
Frames: 18
Frame Time: 0.033333
0.086717 44.463097 -0.701925 3.964844 0.000000 -0.019531 17.314453 0.000000 -0.009766 3.242188 0.000000 1.083988 -8.544920 -0.009766 -0.009767 7.529296 -0.009766 0.000000 1.992188 -2.001953 0.000341 -72.418457 1.326084 -0.337758 -29.857445 -0.721523 8.413293 -8.589953 17.539904 -17.568071 -2.001953 1.992188 0.000000 76.071533 -18.857391 -4.275678 41.374348 0.607548 8.477604 3.850539 -18.649563 -11.516343 -29.813646 9.452819 -1.148787 27.562904 -1.299898 -2.341401 -2.066864 -0.820538 -7.676491 -7.486254 -13.265081 1.883254 24.427502 1.362703 2.075755 -21.095814 -2.560641 11.285770 
0.086717 44.463097 -1.490552 3.964844 0.000000 -0.019531 17.314453 0.000000 -0.009766 3.242188 0.000000 1.083988 -8.544920 -0.009766 -0.009767 7.529296 -0.009766 0.000000 1.992188 -2.001953 0.000341 -72.418457 1.326084 -0.337758 -29.857445 -0.721523 8.413293 -8.589953 17.539904 -17.568071 -2.001953 1.992188 0.000000 76.071533 -18.857391 -4.275678 41.374348 0.607548 8.477604 3.850539 -18.649563 -11.516343 -29.813646 9.452819 -1.148787 27.562904 -1.299898 -2.341401 -2.066863 -0.820539 -7.676492 -7.486254 -13.265081 1.883254 24.427502 1.362702 2.075755 -21.095814 -2.560640 11.285771 
0.079204 44.463097 -2.286720 3.964844 0.000000 -0.019531 17.314453 0.000000 -0.009766 3.242188 0.000000 1.083988 -8.544920 -0.009766 -0.009767 7.529296 -0.009766 0.000000 1.992188 -2.001953 0.000341 -72.418457 1.326084 -0.337758 -29.857445 -0.721523 8.413293 -8.589953 17.539904 -17.568071 -2.001953 1.992188 0.000000 76.071533 -18.857391 -4.275678 41.374348 0.607548 8.477604 3.850539 -18.649563 -11.516343 -29.813646 9.452819 -1.148787 27.562904 -1.299897 -2.341401 -2.066864 -0.820538 -7.676491 -7.486254 -13.265081 1.883254 24.427502 1.362702 2.075755 -21.095814 -2.560640 11.285771 
0.071691 44.463097 -3.082842 3.964844 0.000000 -0.019531 17.314453 0.000000 -0.009766 3.242188 0.000000 1.083988 -8.544920 -0.009766 -0.009767 7.529296 -0.009766 0.000000 1.992188 -2.001953 0.000341 -72.418457 1.326084 -0.337758 -29.857445 -0.721523 8.413293 -8.589953 17.539904 -17.568071 -2.001953 1.992188 0.000000 76.071533 -18.857391 -4.275678 41.374348 0.607548 8.477604 3.850539 -18.649563 -11.516343 -29.813646 9.452822 -1.148787 27.562906 -1.299897 -2.341400 -2.066863 -0.820539 -7.676492 -7.486254 -13.265079 1.883254 24.427502 1.362702 2.075755 -21.095814 -2.560641 11.285770 
0.114266 44.423031 -3.828938 3.964799 -0.009766 0.263672 17.333471 -0.107421 0.273437 3.242188 0.000000 1.083988 -8.544920 -0.009766 -0.009767 7.509976 -0.009763 -1.230470 1.992188 -2.001953 0.000341 -69.984566 0.392832 -1.135268 -32.766506 -0.698446 8.433080 -9.230987 17.432081 -19.271553 -2.001953 1.992188 0.000000 75.996719 -18.234837 -4.001208 41.345070 0.606589 8.478449 3.850539 -18.649563 -11.516343 -30.042048 9.294529 -1.100204 27.983627 -1.275789 -2.367368 -2.262965 -0.798968 -7.506051 -7.602278 -13.341622 2.066408 25.063042 1.343301 2.124180 -21.230114 -2.768959 11.004747 
0.156848 44.382954 -4.574995 3.964661 -0.019530 0.537109 17.341663 -0.214834 0.556637 3.242188 0.000000 1.093750 -8.544920 -0.009766 -0.009767 7.500419 -0.009757 -2.460939 1.992188 -2.001953 0.000341 -67.537941 -0.513861 -1.977296 -35.689556 -0.670389 8.452854 -9.862147 17.305981 -20.966463 -2.001953 1.992188 0.000000 75.920403 -17.618391 -3.713962 41.325871 0.596189 8.488778 3.850539 -18.649563 -11.516343 -30.276640 9.148182 -1.062240 28.403749 -1.256193 -2.403940 -2.438514 -0.766106 -7.372207 -7.723939 -13.426972 2.258654 25.689152 1.313887 2.169872 -21.331003 -2.983960 10.728787 
0.337158 44.195114 -5.183324 3.964341 -0.019525 1.474609 17.368349 -0.536915 1.542992 3.251953 0.000000 2.958984 -8.544920 -0.009766 -0.009767 7.445871 -0.038807 -6.562505 1.992188 -2.001953 0.000341 -59.241604 -2.739741 -6.754591 -45.723766 -0.606362 8.533281 -11.989047 16.759586 -26.753220 -2.001953 1.992188 0.000000 75.558098 -15.544665 -2.735055 41.227962 0.602748 8.472057 3.850539 -18.649563 -11.516343 -31.061840 8.612510 -0.972256 29.831438 -1.192607 -2.481447 -3.065392 -0.663191 -6.833168 -8.024426 -13.716440 2.925985 27.801405 1.235593 2.300143 -21.753614 -3.643754 9.799537 
0.517469 44.007278 -5.791650 3.973787 -0.019514 2.412109 17.393711 -0.858538 2.529452 3.271484 0.000000 4.833984 -8.544920 -0.009766 -0.009767 7.397270 -0.076776 -10.664081 1.992188 -2.001953 0.000341 -50.776047 -4.241861 -11.797296 -55.761909 -0.560792 8.629888 -14.047244 16.010540 -32.497025 -2.001953 1.992188 0.000000 75.230247 -13.461207 -1.781575 41.130051 0.609303 8.474862 3.850539 -18.649563 -11.516343 -31.816776 8.083382 -0.858285 31.268087 -1.138899 -2.560754 -3.675668 -0.564219 -6.291907 -8.334741 -13.987170 3.585412 29.903139 1.147123 2.425388 -22.227041 -4.318157 8.839745 
0.715308 43.837013 -6.382452 3.973469 -0.019498 3.349610 17.418570 -1.159898 3.535815 3.289871 -0.009698 6.728516 -8.544920 -0.009766 -0.009767 7.329858 -0.132180 -14.804735 1.992188 -2.001953 0.000341 -42.416332 -5.580983 -17.723675 -66.098625 -0.521798 8.731962 -16.051029 15.046660 -38.339008 -2.001953 1.992188 0.000000 74.697037 -11.344527 -0.771212 41.012932 0.605449 8.468458 3.850539 -18.649563 -11.516343 -32.593037 7.567289 -0.728666 32.704632 -1.075674 -2.636494 -4.304823 -0.474300 -5.772688 -8.539272 -14.279476 4.300151 32.081985 1.059169 2.552021 -22.642248 -5.025104 7.839611 
0.913148 43.666744 -6.973253 3.973153 -0.019477 4.277345 17.442841 -1.460264 4.532513 3.317384 -0.019310 8.623046 -8.544920 -0.009766 -0.009767 7.276783 -0.203205 -18.945465 1.992188 -2.001953 0.000341 -33.941517 -6.047441 -23.786261 -76.440025 -0.509860 8.837817 -17.946430 13.888071 -44.112537 -2.001953 1.992188 0.000000 74.197945 -9.220766 0.213680 40.895500 0.611349 8.471807 3.850539 -18.649563 -11.516343 -33.365604 7.050000 -0.592058 34.130310 -1.026987 -2.724367 -4.919134 -0.359269 -5.217940 -8.744539 -14.582510 5.016273 34.279770 0.961156 2.674229 -23.098087 -5.720165 6.823970 
1.108482 43.503910 -7.566556 3.962181 -0.029176 5.214843 17.430836 -1.837239 5.491086 3.316777 -0.019209 10.429686 -8.544920 -0.009766 -0.009767 7.244216 -0.179815 -22.978640 1.992188 -2.001953 0.000341 -26.417278 -6.109427 -30.010078 -85.753975 -0.507866 8.937710 -19.543388 12.677756 -49.319305 -2.001953 1.992188 0.000000 73.708099 -7.200378 1.121535 40.866222 0.610382 8.472645 3.850539 -18.649563 -11.516343 -34.133945 6.668477 -0.510593 35.488190 -0.958756 -2.792439 -5.483663 -0.277951 -4.843456 -8.949490 -14.885525 5.733851 36.477146 0.863288 2.783881 -23.531549 -6.464430 5.870519 
1.303814 43.341072 -8.159863 3.951944 -0.029129 6.142578 17.405087 -2.222186 6.449911 3.325936 -0.019087 12.246093 -8.544920 -0.009766 -0.009767 7.208741 -0.156606 -27.011847 1.992188 -2.001953 0.000341 -18.933086 -5.354685 -36.197479 -95.069649 -0.537490 9.034274 -21.028379 11.323870 -54.471165 -2.001953 1.992188 0.000000 73.270233 -5.171512 2.000370 40.827187 0.609094 8.473759 3.850539 -18.649563 -11.516343 -34.895821 6.277885 -0.421179 36.845566 -0.900335 -2.862269 -6.078496 -0.177655 -4.458857 -9.155687 -15.189576 6.472347 38.683079 0.755564 2.907290 -23.955566 -7.172474 4.917884 
1.471604 43.155800 -8.780711 3.961262 -0.029077 7.021483 17.276831 -2.809089 7.303338 3.298441 -0.009481 13.867188 -8.544920 -0.009766 -0.009767 7.240164 0.075502 -30.791037 1.992188 -2.001953 0.000341 -13.023130 -4.568418 -41.729755 -102.031212 -0.560878 9.102769 -22.098612 10.160351 -58.510124 -2.001953 1.992188 0.000000 73.107758 -3.425071 2.334886 41.002853 0.614888 8.478501 3.850539 -18.649563 -11.516343 -35.605125 6.015440 -0.523740 38.066055 -0.841749 -2.924181 -6.530913 -0.140638 -4.300496 -9.440142 -15.464701 7.157071 40.839977 0.647725 3.015381 -24.369392 -7.913159 4.130366 
1.639384 42.970524 -9.401569 3.971925 -0.019346 7.900391 17.151121 -3.393204 8.148730 3.261719 0.000000 15.488280 -8.544920 -0.009766 -0.009767 7.250371 0.305569 -34.570847 1.992188 -2.001953 0.000341 -7.229059 -3.221741 -47.152874 -108.987289 -0.588334 9.162868 -23.088287 8.929959 -62.518894 -2.001953 1.992188 0.000000 72.962921 -1.665236 2.665120 41.188923 0.601466 8.482945 3.850539 -18.649563 -11.516343 -36.312687 5.741258 -0.630336 39.285995 -0.783348 -2.994874 -6.999601 -0.094458 -4.137468 -9.735210 -15.721584 7.843372 42.976860 0.540204 3.119264 -24.738834 -8.645987 3.340863 
1.734547 42.795193 -10.095047 3.894929 -0.009641 9.160156 16.685570 -4.827111 8.683052 3.159842 0.018728 16.494143 -8.544920 -0.009766 -0.009767 7.322125 1.399398 -38.069973 1.992188 -2.001953 0.000341 -2.678308 -1.160094 -51.781361 -112.466537 -0.610385 9.199548 -23.676476 8.107521 -65.070091 -2.001953 1.992188 0.000000 73.855530 0.583868 2.647219 41.765362 0.600775 8.485826 3.850539 -18.649563 -11.516343 -36.952682 5.506166 -0.995164 40.330154 -0.719122 -3.053885 -7.331697 -0.115824 -4.173551 -10.203617 -15.935897 8.482391 44.977077 0.432537 3.203774 -25.107662 -9.345280 2.794271 
1.829694 42.619858 -10.788541 3.820127 0.009604 10.429688 16.209856 -6.266033 9.235222 3.051785 0.046571 17.490244 -8.544920 -0.009766 -0.009767 7.328745 2.485255 -41.570995 1.992188 -2.001953 0.000341 1.678381 1.262555 -56.223942 -115.936790 -0.636195 9.230585 -24.218920 7.268920 -67.592003 -2.001953 1.992188 0.000000 74.743233 2.828277 2.650259 42.351555 0.600230 8.488232 3.850539 -18.649563 -11.516343 -37.609108 5.272185 -1.357893 41.413403 -0.666564 -3.108279 -7.665712 -0.137071 -4.188362 -10.682225 -16.151043 9.123893 46.996136 0.315219 3.291844 -25.467499 -10.017565 2.249366 
1.829694 42.452087 -11.577180 3.675982 0.019095 12.138674 15.420710 -8.104053 9.400100 2.709331 0.074416 17.724634 -8.544920 -0.009766 -0.009767 7.790009 4.089143 -44.488594 1.992188 -2.001953 0.000341 4.652230 4.573920 -59.467144 -115.803741 -0.633388 9.225036 -24.440008 6.880039 -68.693359 -2.001953 1.992188 0.000000 76.384247 5.529921 2.721600 43.387291 0.594280 8.506333 3.850539 -18.649563 -11.516343 -38.277454 5.292278 -1.604104 42.467319 -0.608144 -3.158315 -8.023773 -0.162599 -4.355895 -11.434147 -16.287710 9.673777 48.809940 0.207546 3.370942 -25.781321 -10.641575 2.029924 
1.829677 42.284313 -12.365835 3.524974 0.037927 13.847660 14.630142 -9.930524 9.586870 2.367089 0.102194 17.949259 -8.544920 -0.009766 -0.009767 8.158625 5.719229 -47.408417 1.992188 -2.001953 0.000341 7.456501 8.033991 -62.549118 -115.679871 -0.632005 9.222309 -24.660025 6.501987 -69.784988 -2.001953 1.992188 0.000000 78.037285 8.226495 2.864875 44.423016 0.587768 8.514076 3.850539 -18.649563 -11.516343 -38.923378 5.321512 -1.834574 43.521446 -0.552635 -3.198881 -8.362345 -0.223517 -4.550815 -12.200310 -16.409950 10.236789 50.632889 0.109689 3.461744 -26.067028 -11.271799 1.829074 
